<?xml version="1.0" encoding="UTF-8"?>
<!DOCTYPE svg PUBLIC "-//W3C//DTD SVG 1.1//EN" "http://www.w3.org/Graphics/SVG/1.1/DTD/svg11.dtd">
<!-- Creator: CorelDRAW -->
<svg xmlns="http://www.w3.org/2000/svg" xml:space="preserve" width="24.1343mm" height="27.7313mm" version="1.1" style="shape-rendering:geometricPrecision; text-rendering:geometricPrecision; image-rendering:optimizeQuality; fill-rule:evenodd; clip-rule:evenodd"
viewBox="0 0 941.95 1082.34"
 xmlns:xlink="http://www.w3.org/1999/xlink"
 xmlns:xodm="http://www.corel.com/coreldraw/odm/2003">
 <defs>
  <style type="text/css">
   <![CDATA[
    .fil0 {fill:#CF090A}
    .fil1 {fill:#F49332}
   ]]>
  </style>
 </defs>
 <g id="Layer_x0020_1">
  <metadata id="CorelCorpID_0Corel-Layer"/>
  <g id="_2079945733728">
   <path class="fil0" d="M0 551.61c0,35.49 -0.12,72.06 7.91,106.62 20.87,89.73 55.09,134.88 111.98,203.57 5.78,6.97 9.38,9.06 16.03,14.36l33.37 29.74c27.24,21.04 13.91,22.05 0.7,33.07 -12.25,10.21 -15.8,31.08 -0.79,41.82 4.64,3.32 20.12,5.16 27.21,5.51l57.69 7.76c35.06,5.83 76.25,12.83 108.48,22.41l100.52 30.37c17.26,5.73 30.58,11.1 47.8,17.65 24.97,9.5 57.08,34.21 57.08,1.35 0,-20.6 -35.67,-37.96 -51.42,-49.09 -9.98,-7.05 -18.92,-14.19 -29.39,-22.03 -5.63,-4.22 -9.41,-7.06 -14.71,-11 -6.21,-4.62 -8.41,-7.16 -14.02,-11.7 -8.91,-7.22 -18.57,-14.3 -26.66,-22.43l-26.88 -24.55c-8.93,-8.19 -44.63,-45.55 -47.3,-55.54 -35.24,0 -71.73,31.99 -118.3,-38.3 -12.19,-18.39 -53.57,-92.84 -24.82,-116.51 31.77,-26.17 166.5,8.33 166.5,89.37 0,61.71 -11.53,36.73 29.85,77.67 24.16,23.91 48.89,45.77 76.68,65.9 6.64,4.81 9.21,7.11 16.6,11.45 6.82,4 11.32,7.56 17.15,10.89 55.86,31.88 126.38,42.52 189.59,21.38 39.88,-13.33 104.79,-60.96 131.15,-90.9 35.53,-40.35 63.82,-85.48 83.27,-136.44 3.95,-10.36 16.67,-47.14 16.67,-58.13 0,-9.26 -18.55,-12.99 -26.02,-16.05 -112.01,-45.87 -225.1,-88.28 -341.24,-123.89l-64.9 -19.24c-23.35,-6.64 -117.83,-43.01 -89.83,22.04 11.48,26.67 58.06,107.85 79.69,123.66 9.52,6.96 14.32,2.79 27.71,5.02 12.95,2.16 16.36,3.86 23.77,11.29 23.39,23.48 36.15,54.41 52.91,82.66 6.53,11.01 22.38,32.84 22.38,45.41 0,8.93 0.72,0.85 -2.33,7.01 -10.15,-0.84 -8.69,-3.09 -12.58,-10.8 -7.39,-14.69 -27.53,-39.96 -38.37,-57.46 -5.29,-8.55 -17.14,-31.11 -30.17,-25.88 -9.73,3.9 -3.91,17.31 -1.03,22.02l41.68 63.5c8.22,13.04 11.41,11.3 10.08,27.32l-4.67 0c-2.47,-9.25 -3.1,-5.52 -8.69,-12.35 -6.57,-8.02 -6.75,-14.02 -14.31,-20.75 -6.19,-5.51 -1.2,0.2 -5.75,-5.94l-19.38 -27.37c-11.98,-15.07 -16.17,-32.59 -38.35,-17.74 6.02,11.38 7.06,16.13 15.61,26.46l36.8 49.69c8.31,10.46 13.95,11.91 15.37,29.03 -14.67,8.24 -17.9,-6.37 -30.03,-21.39 -22.74,-28.15 -77.49,-77.69 -77.49,-111.84 0,-30.28 19.04,-25.63 -6,-61.79 -24.41,-35.24 -53.12,-66.56 -79.46,-100.51 -8.01,-10.32 -15.13,-15.17 -22.4,-24.35 -13.02,-16.42 -31.75,-29.58 -48.38,-42.78 -60.11,-47.73 -171.26,-63.29 -245.84,-69.69 -13.81,-1.19 -28.99,-4.74 -42.01,-4.74 -10.1,21.04 -11.38,51.44 -15.3,75.86 -1.92,11.95 -3.4,16.09 -3.4,29.32z"/>
   <path class="fil1" d="M495.52 490.84c28.81,0 36.22,11.01 98.24,-4.6 103.15,-25.97 51.26,-134.99 -10.04,-73.15 -5.25,5.3 -8.73,8.76 -14.02,14.02 -16.6,16.51 -27.09,38.81 -59.93,49.93 -9.59,3.24 -13.23,1.65 -14.25,13.8zm56.1 -322.55c32.45,0 16.59,22.39 4.01,39.07 -32.5,43.08 -34.68,39.03 -65.37,70.19 -32.35,32.84 -67.19,45.49 -67.19,119.8 0,16.89 4.78,30.83 10.19,45.91 2.94,8.2 4.42,8.29 6.17,14.86 12.74,-6.12 7.7,2.63 21.07,-25.67 3.03,-6.41 4.9,-7.96 8.33,-15.05 15.06,-31.16 24.41,-42.24 49.45,-67.41 44.44,-44.67 85.86,-32.87 154.46,-79.28 57.68,-39.01 64.78,-99.56 45.73,-166.42 -2.2,-7.73 -11.25,-26.07 -15.48,-31.27 -29.12,-35.77 -132.59,3.28 -168.7,17.16 -9.87,3.79 -17.8,6.19 -27.93,9.47 -56.31,18.23 -86.7,26.74 -69.5,-60.15 3.34,-16.86 7.25,-25.56 7.25,-39.5 -16.8,0 -30.64,13.22 -41.54,23.91 -15.77,15.47 -23.46,28.92 -33.6,48.2 -1.89,3.58 -3.31,7.08 -5.16,11.2 -10.76,23.93 -17.6,54.16 -7.67,79.46 15.41,39.26 54.22,38.15 91.04,31.96 41.77,-7.02 85.42,-26.44 104.45,-26.44zm-299.18 130.89c0,62.28 93.28,140.24 133.23,140.24l0 -9.35c-8.84,-2.36 -5.46,-1.88 -10.49,-10.55 -6.71,-11.57 -18.02,-37.89 -19.56,-50.56 -3.54,-28.99 -1.84,-57.37 -9.35,-81.8 -19.18,-62.39 -93.83,-45.35 -93.83,12.02z"/>
  </g>
 </g>
</svg>
