<?xml version="1.0" encoding="UTF-8"?>
<!DOCTYPE svg PUBLIC "-//W3C//DTD SVG 1.1//EN" "http://www.w3.org/Graphics/SVG/1.1/DTD/svg11.dtd">
<!-- Creator: CorelDRAW -->
<svg xmlns="http://www.w3.org/2000/svg" xml:space="preserve" width="1.68363in" height="1.52517in" version="1.1" style="shape-rendering:geometricPrecision; text-rendering:geometricPrecision; image-rendering:optimizeQuality; fill-rule:evenodd; clip-rule:evenodd"
viewBox="0 0 225.72 204.47"
 xmlns:xlink="http://www.w3.org/1999/xlink"
 xmlns:xodm="http://www.corel.com/coreldraw/odm/2003">
 <defs>
  <style type="text/css">
   <![CDATA[
    .fil0 {fill:white}
   ]]>
  </style>
 </defs>
 <g id="Layer_x0020_1">
  <metadata id="CorelCorpID_0Corel-Layer"/>
  <path class="fil0" d="M82.41 61.55c0,-5.64 4.61,-10.25 10.25,-10.25l40.67 0c5.64,0 10.25,4.61 10.25,10.25 0,5.64 -4.61,10.25 -10.25,10.25l-40.67 0c-5.64,0 -10.25,-4.61 -10.25,-10.25zm61.21 99.95l0 22.31 20.53 0 0 -143.14 0 -8.93c0,-6.18 -5.06,-11.24 -11.24,-11.24l-80.22 0c-6.18,0 -11.24,5.06 -11.24,11.24l0 152.07 20.57 0 0 -22.31c0,-37.74 61.6,-37.74 61.6,0zm-70.92 -161.49l80.21 0c17.46,0 31.74,14.28 31.74,31.74l0 8.93 10.29 0c16.93,0 30.78,13.85 30.78,30.78l0 102.24c0,16.93 -13.85,30.78 -30.78,30.78 -54.84,0 -110.46,-0.55 -164.52,-0.55 -16.73,0 -30.42,-13.69 -30.42,-30.42l0 -71.29c0,-16.73 13.69,-30.42 30.42,-30.42l10.54 0 0 -40.06c0,-17.46 14.28,-31.74 31.74,-31.74zm50.57 183.81l-20.9 0 0 -20.09c0,-5.75 4.7,-10.45 10.45,-10.45l0 0c5.75,0 10.45,4.7 10.45,10.45l0 20.09zm-82.31 -91.79l-10.23 0c-5.63,0 -10.23,4.6 -10.23,10.23l0 71.33c0,5.63 4.6,10.23 10.23,10.23l10.23 0 0 -91.79zm143.69 -30.47l10.23 0c5.63,0 10.23,4.6 10.23,10.23l0 102.22c0,5.63 -4.6,10.23 -10.23,10.23l-10.23 0 0 -122.68zm-102.74 40.99c0,-5.64 4.61,-10.25 10.25,-10.25l40.67 0c5.64,0 10.25,4.61 10.25,10.25 0,5.64 -4.61,10.25 -10.25,10.25l-40.67 0c-5.64,0 -10.25,-4.61 -10.25,-10.25z"/>
 </g>
</svg>
